<svg width="160" height="146" viewBox="0 0 160 146" fill="none" xmlns="http://www.w3.org/2000/svg">
<g clip-path="url(#clip0)">
<path d="M79.7927 76.7198H67.3898C66.1849 76.7198 65.0299 77.0928 64.1372 77.77C61.7042 79.6152 57.2244 81.8148 49.6981 81.8148C40.8044 81.8148 33.9213 78.2167 30.3168 71.6838C29.6034 70.3911 27.9571 69.5559 26.1224 69.5559H15.1201C12.9017 69.5559 11.1035 68.1676 11.1035 66.4549C11.1035 64.7421 12.902 63.3538 15.1201 63.3538H26.1224C31.1826 63.3538 35.7301 65.6695 37.7074 69.2532C40.0358 73.4733 44.0699 75.6128 49.6981 75.6128C54.5089 75.6128 57.1439 74.38 58.5073 73.3459C60.9113 71.5224 64.066 70.518 67.3898 70.518H79.7927V76.7198Z" fill="#101D2C"/>
<path d="M21.3095 80.8923C19.9786 80.8923 18.8997 80.0593 18.8997 79.0317V63.2845C18.8997 62.2569 19.9786 61.4239 21.3095 61.4239C22.6405 61.4239 23.7194 62.2569 23.7194 63.2845V79.0315C23.7197 80.0591 22.6405 80.8923 21.3095 80.8923Z" fill="#FFD597"/>
<path d="M79.8511 77.1016H92.2539C93.4588 77.1016 94.6139 77.4466 95.5066 78.073C97.9395 79.7797 102.419 81.8143 109.946 81.8143C118.839 81.8143 125.722 78.4862 129.327 72.4434C130.04 71.2477 131.687 70.4752 133.521 70.4752H144.524C146.742 70.4752 148.54 69.191 148.54 67.6068C148.54 66.0226 146.742 64.7385 144.524 64.7385H133.521C128.461 64.7385 123.914 66.8804 121.936 70.1952C119.608 74.0987 115.574 76.0776 109.946 76.0776C105.135 76.0776 102.5 74.9373 101.136 73.9808C98.7324 72.2942 95.5777 71.3651 92.2539 71.3651H79.8511V77.1016Z" fill="#101D2C"/>
<path d="M138.405 79.4313C137.073 79.4313 135.995 78.6608 135.995 77.7104L135.995 63.1449C135.995 62.1944 137.074 61.4239 138.405 61.4239C139.736 61.4239 140.815 62.1944 140.815 63.1449L140.814 77.7104C140.815 78.6606 139.735 79.4313 138.405 79.4313Z" fill="#FFD597"/>
<path d="M87.8279 142.775H71.8745L75.7713 68.0209H83.9311L87.8279 142.775Z" fill="#FCB44D"/>
<path d="M84.244 73.9908C82.875 74.262 81.3937 74.4096 79.8512 74.4096C78.3088 74.4096 76.8275 74.262 75.4585 73.9908L75.7701 68.0209H83.9321L84.244 73.9908Z" fill="#FB9927"/>
<path d="M32.1387 119.498C31.4336 119.498 30.7902 119.113 30.6049 118.534L21.3513 89.5724L12.0981 118.534C11.8783 119.222 11.0139 119.635 10.1653 119.456C9.31748 119.278 8.80852 118.576 9.02852 117.887L19.8166 84.1225C19.9978 83.555 20.6291 83.1586 21.3515 83.1586C22.0739 83.1586 22.7051 83.5548 22.8864 84.1225L33.6746 117.887C33.8944 118.576 33.3857 119.278 32.5379 119.456C32.4043 119.484 32.2705 119.498 32.1387 119.498Z" fill="#FFD597"/>
<path d="M148.844 119.498C148.139 119.498 147.496 119.113 147.31 118.534L138.057 89.5724L128.804 118.534C128.584 119.222 127.719 119.635 126.871 119.456C126.023 119.278 125.514 118.576 125.734 117.887L136.522 84.1225C136.703 83.555 137.335 83.1586 138.057 83.1586C138.779 83.1586 139.411 83.5548 139.592 84.1225L150.38 117.887C150.6 118.576 150.091 119.278 149.243 119.456C149.11 119.484 148.976 119.498 148.844 119.498Z" fill="#FFD597"/>
<path d="M146.154 126.92H130.656C123.174 126.92 117.108 122.139 117.108 116.24V115.01C117.108 113.337 118.829 111.981 120.951 111.981H155.859C157.981 111.981 159.702 113.337 159.702 115.01V116.24C159.702 122.138 153.636 126.92 146.154 126.92Z" fill="#FCB44D"/>
<path d="M42.4454 117.414C42.3649 118.327 41.9666 119.195 41.3109 119.988H30.4758C31.1346 119.196 31.5329 118.327 31.6134 117.414H42.4454Z" fill="#F98824"/>
<path d="M138.405 85.0741C141.742 85.0741 144.448 82.6888 144.448 79.7463C144.448 76.8038 141.742 74.4185 138.405 74.4185C135.067 74.4185 132.362 76.8038 132.362 79.7463C132.362 82.6888 135.067 85.0741 138.405 85.0741Z" fill="#FCB44D"/>
<path d="M29.0459 126.92H13.5488C6.06588 126.92 0 122.138 0 116.24V115.01C0 113.337 1.72085 111.981 3.84346 111.981H38.7509C40.8735 111.981 42.5943 113.337 42.5943 115.01V116.24C42.5943 122.138 36.5285 126.92 29.0459 126.92Z" fill="#FCB44D"/>
<path d="M21.2973 85.0741C24.6348 85.0741 27.3404 82.6888 27.3404 79.7463C27.3404 76.8038 24.6348 74.4185 21.2973 74.4185C17.9597 74.4185 15.2542 76.8038 15.2542 79.7463C15.2542 82.6888 17.9597 85.0741 21.2973 85.0741Z" fill="#FCB44D"/>
<path d="M79.8511 116.942C85.592 116.942 90.2459 113.451 90.2459 109.146C90.2459 104.84 85.592 101.35 79.8511 101.35C74.1102 101.35 69.4563 104.84 69.4563 109.146C69.4563 113.451 74.1102 116.942 79.8511 116.942Z" fill="#FB9927"/>
<path d="M79.8509 71.062C84.166 71.062 87.6641 69.1939 87.6641 66.8895C87.6641 64.5851 84.166 62.717 79.8509 62.717C75.5357 62.717 72.0376 64.5851 72.0376 66.8895C72.0376 69.1939 75.5357 71.062 79.8509 71.062Z" fill="#FFD597"/>
<path d="M87.6657 66.8904C87.6657 69.1944 84.1653 71.0615 79.8509 71.0615C78.6238 71.0615 77.465 70.9116 76.4307 70.6419C79.0289 69.9632 80.8212 68.5393 80.8212 66.8906C80.8212 65.2418 79.0289 63.8158 76.4307 63.137C77.4653 62.8672 78.6241 62.7173 79.8509 62.7173C84.1653 62.7171 87.6657 64.5842 87.6657 66.8904Z" fill="#FCC16D"/>
<path d="M111.825 139.23H47.8777V134.752C47.8777 133.33 50.0355 132.178 52.6978 132.178H107.005C109.667 132.178 111.825 133.33 111.825 134.752V139.23Z" fill="#101D2C"/>
<path d="M122.343 143.998H37.3591C35.5843 143.998 34.1458 143.23 34.1458 142.282V139.5C34.1458 138.552 35.5843 137.784 37.3591 137.784H122.343C124.118 137.784 125.556 138.552 125.556 139.5V142.282C125.556 143.23 124.118 143.998 122.343 143.998Z" fill="#FB9927"/>
<path d="M90.9621 120.407H68.7407C66.9659 120.407 65.5273 119.639 65.5273 118.691V116.491C65.5273 115.543 66.9659 114.775 68.7407 114.775H90.9621C92.7369 114.775 94.1755 115.543 94.1755 116.491V118.691C94.1752 119.639 92.7366 120.407 90.9621 120.407Z" fill="#FFD597"/>
</g>
<g clip-path="url(#clip1)">
<path d="M66.0946 61.233C66.7297 61.4993 67.8686 62.6432 68.4468 62.8467C70.3139 66.0576 72.5651 77.3691 79.8503 77.3691C87.1355 77.3691 90.8336 74.4645 92.6985 71.2535C93.2773 71.05 92.4253 61.4993 93.0604 61.233L95.0656 68.45L105.916 70.9144V85.4368L103.369 87.9587C102.933 88.3907 102.78 89.0297 102.975 89.6095L103.571 91.3845C103.735 91.8758 103.651 92.4156 103.346 92.8354C103.04 93.2545 102.549 93.5037 102.027 93.5045H57.6733C57.15 93.5045 56.659 93.2545 56.3527 92.834C56.047 92.4134 55.9641 91.8729 56.1292 91.381L56.7254 89.6059C56.92 89.0261 56.7679 88.3871 56.331 87.9558L53.7849 85.4368V70.9144L64.6393 68.45L66.0946 61.233Z" fill="#101D2C"/>
<path d="M104.034 52.845C104.034 55.5241 101.862 57.6966 99.1829 57.6966C96.5031 57.6966 94.3313 55.5241 94.3313 52.845C94.3313 50.1659 96.5031 47.9934 99.1829 47.9934C101.862 47.9934 104.034 50.1659 104.034 52.845Z" fill="#F59F57"/>
<path d="M65.1425 52.845C65.1425 55.5241 62.97 57.6966 60.2908 57.6966C57.6117 57.6966 55.4399 55.5241 55.4399 52.845C55.4399 50.1659 57.6117 47.9934 60.2908 47.9934C62.97 47.9934 65.1425 50.1659 65.1425 52.845Z" fill="#F59F57"/>
<path d="M80.055 43.6596H57.4155C57.4155 51.7449 65.5009 67.9156 68.7353 69.5328C74.4718 74.4725 80.055 74.4725 80.055 74.4725C80.055 74.4725 86.0564 74.4725 91.3748 69.5328C94.6092 67.9156 102.694 51.7449 102.694 43.6596H80.055Z" fill="#FFD597"/>
<path d="M39.6515 43.6596C38.7477 43.6617 37.884 43.2875 37.2672 42.6263C36.651 41.9651 36.3376 41.0778 36.4027 40.1762C38.289 17.4687 57.2697 0 80.0552 0C102.841 0 121.821 17.4687 123.708 40.1762C123.773 41.0778 123.459 41.9651 122.842 42.6263C122.226 43.2875 121.363 43.6617 120.459 43.6596H39.6515Z" fill="#FCB44D"/>
<path d="M44.4788 43.6596C44.4788 24.0112 60.4068 8.08316 80.0552 8.08316C99.7035 8.08316 115.632 24.0112 115.632 43.6596H44.4788Z" fill="#942714"/>
<path d="M50.9468 43.6596C50.9468 27.5834 63.9789 14.5513 80.0551 14.5513C96.1306 14.5513 109.163 27.5834 109.163 43.6596H50.9468Z" fill="#101D2C"/>
<path d="M54.1813 85.7042L48.0366 86.935C47.56 87.0323 47.0656 86.9099 46.6892 86.6022C46.3135 86.2945 46.0952 85.8344 46.0959 85.3485V71.5056C46.0952 71.0198 46.3135 70.5597 46.6892 70.252C47.0656 69.9443 47.56 69.8226 48.0366 69.9192L54.1813 71.15V85.7042Z" fill="#FB9927"/>
<path d="M62.2667 37.1908C62.2667 38.0838 61.5432 38.808 60.6502 38.808C59.7564 38.808 59.033 38.0838 59.033 37.1908C59.033 36.2977 59.7564 35.5735 60.6502 35.5735C61.5432 35.5735 62.2667 36.2977 62.2667 37.1908Z" fill="#FCB44D"/>
<path d="M65.501 30.7226C65.501 31.6157 64.7768 32.3391 63.8838 32.3391C62.9908 32.3391 62.2666 31.6157 62.2666 30.7226C62.2666 29.8296 62.9908 29.1054 63.8838 29.1054C64.7768 29.1054 65.501 29.8296 65.501 30.7226Z" fill="#FCB44D"/>
<path d="M71.9698 25.871C71.9698 26.7641 71.2456 27.4882 70.3526 27.4882C69.4595 27.4882 68.7354 26.7641 68.7354 25.871C68.7354 24.978 69.4595 24.2538 70.3526 24.2538C71.2456 24.2538 71.9698 24.978 71.9698 25.871Z" fill="#FCB44D"/>
<path d="M81.6724 24.2538C81.6724 25.1468 80.9482 25.871 80.0552 25.871C79.1622 25.871 78.438 25.1468 78.438 24.2538C78.438 23.3608 79.1622 22.6366 80.0552 22.6366C80.9482 22.6366 81.6724 23.3608 81.6724 24.2538Z" fill="#FCB44D"/>
<path d="M48.2253 49.2919C47.9341 46.1004 45.2571 43.6575 42.0528 43.6596C38.8498 43.6596 36.1743 46.1019 35.8838 49.2919L35.0995 57.9204C35.0172 58.8248 35.3192 59.7222 35.931 60.3934C36.5435 61.0639 37.4094 61.4467 38.3174 61.4474H45.7881C45.7881 61.4474 48.1632 61.1204 48.8201 60.4055C49.0046 60.0947 49.0175 58.0112 49.0046 57.9204L48.2253 49.2919Z" fill="#BFA057"/>
<path d="M96.2257 43.6596C96.2257 43.6596 97.8429 48.5105 92.992 48.5105C88.1404 48.5105 86.5232 43.6596 86.5232 43.6596H96.2257Z" fill="#101D2C"/>
<path d="M63.8838 43.6596C63.8838 43.6596 62.2665 48.5105 67.1182 48.5105C71.9698 48.5105 73.5863 43.6596 73.5863 43.6596H63.8838Z" fill="#101D2C"/>
<path d="M89.3663 61.0326C89.3663 61.6262 89.3663 62.257 89.2709 62.8879H70.4292C70.3345 62.257 70.3345 61.6262 70.3345 61.0326C70.3345 58.2501 79.8504 60.3153 79.8504 60.3153C79.8504 60.3153 89.3663 58.2501 89.3663 61.0326Z" fill="#942714"/>
<path d="M89.3663 62.0605C89.0303 66.2311 87.4119 70.3352 79.8508 70.3352C72.2889 70.3352 70.6712 66.2311 70.3345 62.0605H89.3663Z" fill="#C64E3A"/>
<path d="M80.2642 45.511L74.4719 55.4407C76.3651 54.9845 78.3378 54.9067 80.2642 55.2126C82.1907 54.9067 84.1628 54.9845 86.0565 55.4407L80.2642 45.511Z" fill="#BFA057"/>
<path d="M91.3748 69.5328C84.8152 75.3 80.055 74.0588 80.055 74.0588C80.055 74.0588 75.713 75.3 68.7353 69.5328C67.4193 68.5531 66.3317 67.2987 65.5481 65.8575C65.986 70.083 68.4118 77.6188 80.055 77.6188C91.6982 77.6188 94.124 70.083 94.562 65.8575C93.7784 67.2987 92.6907 68.5531 91.3748 69.5328Z" fill="#101D2C"/>
<path d="M105.929 85.7042L112.074 86.935C112.55 87.0323 113.045 86.9099 113.421 86.6022C113.797 86.2945 114.015 85.8344 114.015 85.3485V71.5056C114.015 71.0198 113.797 70.5597 113.421 70.252C113.045 69.9443 112.55 69.8226 112.074 69.9192L105.929 71.15V85.7042Z" fill="#FB9927"/>
<path d="M101.077 37.1908C101.077 38.0838 100.353 38.808 99.4602 38.808C98.5672 38.808 97.843 38.0838 97.843 37.1908C97.843 36.2977 98.5672 35.5736 99.4602 35.5736C100.353 35.5736 101.077 36.2977 101.077 37.1908Z" fill="#FCB44D"/>
<path d="M97.8431 30.7227C97.8431 31.6157 97.1196 32.3392 96.2259 32.3392C95.3328 32.3392 94.6094 31.6157 94.6094 30.7227C94.6094 29.8296 95.3328 29.1055 96.2259 29.1055C97.1196 29.1055 97.8431 29.8296 97.8431 30.7227Z" fill="#FCB44D"/>
<path d="M91.3748 25.871C91.3748 26.7641 90.6506 27.4882 89.7576 27.4882C88.8646 27.4882 88.1404 26.7641 88.1404 25.871C88.1404 24.978 88.8646 24.2538 89.7576 24.2538C90.6506 24.2538 91.3748 24.978 91.3748 25.871Z" fill="#FCB44D"/>
<path d="M111.885 49.2919C112.176 46.1004 114.852 43.6575 118.057 43.6596C121.26 43.6596 123.935 46.1019 124.226 49.2919L125.011 57.9204C125.093 58.8248 124.791 59.7222 124.179 60.3934C123.567 61.0639 122.701 61.4467 121.793 61.4474H114.321C113.596 61.446 112.536 61.233 112.536 61.233C112.536 61.233 111.885 61.0588 111.294 60.4055C111.294 60.3211 111.092 58.0112 111.105 57.9204L111.885 49.2919Z" fill="#BFA057"/>
<path d="M68.7354 43.6596C68.7354 37.4076 73.8031 32.3391 80.0551 32.3391C86.3064 32.3391 91.3748 37.4076 91.3748 43.6596H68.7354Z" fill="#FB9927"/>
<rect x="78.9399" y="77.7824" width="2.64791" height="13.2395" fill="#942714"/>
<rect x="73.6443" y="85.7262" width="2.64791" height="13.2396" transform="rotate(-90 73.6443 85.7262)" fill="#942714"/>
<rect x="76.2922" y="80.4303" width="7.94373" height="7.94376" fill="#942714"/>
</g>
<defs>
<clipPath id="clip0">
<rect width="159.702" height="85.2848" fill="white" transform="translate(0 60.7152)"/>
</clipPath>
<clipPath id="clip1">
<rect width="93.7896" height="93.7896" fill="white" transform="translate(33.0737)"/>
</clipPath>
</defs>
</svg>
