<svg width="120" height="124" viewBox="0 0 120 124" fill="none" xmlns="http://www.w3.org/2000/svg">
<path d="M85 22.5C98.365 22.5 110 17.465 110 11.25C110 5.035 98.365 0 85 0C71.64 0 60 5.035 60 11.25C60 17.465 71.64 22.5 85 22.5ZM85.465 12.455C83.97 12.005 79.395 11.625 79.395 9.08C79.395 7.66 81.065 6.395 84.185 6.115V5H85.79V6.055C86.96 6.08 88.26 6.205 89.71 6.505L89.13 8.215C88.025 7.96 86.795 7.72 85.59 7.72L85.23 7.725C82.82 7.825 82.625 9.16 84.29 9.72C87.025 10.565 90.625 11.18 90.625 13.42C90.625 15.205 88.455 16.16 85.79 16.4V17.5H84.185V16.46C82.545 16.445 80.805 16.18 79.375 15.7L80.11 13.985C81.33 14.3 82.87 14.615 84.25 14.615L85.29 14.545C87.135 14.28 87.505 13.045 85.465 12.455ZM30 77.5C37.225 77.5 44.55 76.62 48.525 73.66C52.5 70.7 54.515 70.7 54.515 64.165C52.26 58.95 41.82 55 30 55C16.64 55 5 60.035 5 66.25C5 72.465 16.64 77.5 30 77.5ZM30.465 67.455C28.97 67.005 24.395 66.625 24.395 64.08C24.395 62.66 26.07 61.395 29.185 61.115V60H30.79V61.055C31.96 61.08 33.26 61.205 34.71 61.505L34.125 63.215C33.025 62.96 31.795 62.72 30.59 62.72L30.23 62.725C27.82 62.825 27.63 64.16 29.29 64.72C32.025 65.565 35.625 66.18 35.625 68.42C35.625 70.205 33.455 71.16 30.79 71.4V72.5H29.185V71.46C27.54 71.445 25.805 71.18 24.375 70.7L25.11 68.985C26.33 69.3 27.87 69.615 29.25 69.615L30.29 69.545C32.13 69.28 32.505 68.045 30.465 67.455ZM60 23.75V20.49C65.73 25.08 75.545 27.5 85 27.5C94.46 27.5 104.27 25.08 110 20.49V23.75C110 29.965 98.365 35 85 35C71.64 35 60 29.965 60 23.75ZM60 36.25V32.995C65.73 37.58 75.545 40 85 40C94.46 40 104.27 37.58 110 32.995V36.25C110 42.465 98.365 47.5 85 47.5C71.64 47.5 60 42.465 60 36.25Z" fill="#D8890B"/>
<path d="M60.23 46.55V49.805C60.23 56.02 71.87 61.055 85.23 61.055C98.595 61.055 110.23 56.02 110.23 49.805V46.55C104.5 51.135 94.69 53.555 85.23 53.555C75.775 53.555 65.96 51.135 60.23 46.55Z" fill="#D8890B"/>
<path d="M30.23 100.49C38.51 100.49 51.73 95.99 53.23 90.99V87.49C47.98 89.49 36.41 92.99 30.23 92.99C20.775 92.99 10.96 90.57 5.23 85.98V89.24C5.23 95.455 16.87 100.49 30.23 100.49Z" fill="#D8890B"/>
<path d="M30.23 88.49C38.51 88.49 51.73 83.99 53.23 78.99V75.49C47.98 77.49 36.41 80.99 30.23 80.99C20.775 80.99 10.96 78.57 5.23 73.98V77.24C5.23 83.455 16.87 88.49 30.23 88.49Z" fill="#D8890B"/>
<path d="M30.23 100.49C38.51 100.49 51.73 95.99 53.23 90.99V87.49C47.98 89.49 36.41 92.99 30.23 92.99C20.775 92.99 10.96 90.57 5.23 85.98V89.24C5.23 95.455 16.87 100.49 30.23 100.49Z" fill="#D8890B"/>
<path d="M30.29 112.5C38.57 112.5 51.79 108 53.29 103V99.5C48.04 101.5 36.47 105 30.29 105C20.835 105 11.02 102.58 5.29 97.99V101.25C5.29 107.465 16.93 112.5 30.29 112.5Z" fill="#D8890B"/>
<g filter="url(#filter0_b)">
<path d="M77.5832 41C54.6683 41 36.0833 59.5851 36.0833 82.5C36.0833 105.415 54.6683 124 77.5832 124C100.498 124 119.083 105.415 119.083 82.5C119.083 59.5851 100.498 41 77.5832 41ZM81.0416 99.6118V103.25H77.5832V99.7986C74.0004 99.7363 70.3 98.8856 67.2082 97.2878L68.7852 91.6023C72.0914 92.8888 76.4904 94.2514 79.9349 93.4698C83.9051 92.5707 84.7212 88.4829 80.3292 86.5186C77.1129 85.0177 67.2636 83.7381 67.2636 75.2997C67.2636 70.5895 70.8602 66.3634 77.5832 65.4435V61.75H81.0416V65.2706C83.5454 65.3397 86.3536 65.7755 89.4868 66.7231L88.2349 72.4224C85.5789 71.4887 82.6462 70.6448 79.7827 70.8178C74.6367 71.1152 74.1802 75.5764 77.7769 77.4439C83.6976 80.2244 91.4166 82.2856 91.4166 89.7072C91.4235 95.6417 86.7686 98.8026 81.0416 99.6118Z" fill="white" fill-opacity="0.45"/>
</g>
<defs>
<filter id="filter0_b" x="20.0833" y="25" width="115" height="115" filterUnits="userSpaceOnUse" color-interpolation-filters="sRGB">
<feFlood flood-opacity="0" result="BackgroundImageFix"/>
<feGaussianBlur in="BackgroundImage" stdDeviation="8"/>
<feComposite in2="SourceAlpha" operator="in" result="effect1_backgroundBlur"/>
<feBlend mode="normal" in="SourceGraphic" in2="effect1_backgroundBlur" result="shape"/>
</filter>
</defs>
</svg>
