<svg width="150" height="172" viewBox="0 0 150 172" fill="none" xmlns="http://www.w3.org/2000/svg">
<path d="M60 115.565L0.075 67H119.93L60 115.565ZM32.875 106.455L0 79.81V142.315L32.875 106.455ZM87.125 106.455L120 142.315V79.81L87.125 106.455ZM79.34 112.76L60 128.435L40.66 112.76L0.11 157H119.89L79.34 112.76V112.76Z" fill="#D8890B"/>
<path d="M122.4 114.63L116.435 117.92C81.5399 136.025 21.0249 30.45 55.0399 10.5L60.7649 7.315L79.3349 39.65L73.6399 42.81C63.3049 49.035 87.4399 91.345 98.0349 85.535L103.845 82.325L122.4 114.63V114.63ZM73.3599 0L64.9599 4.875L83.5299 37.205L91.9349 32.33L73.3599 0ZM116.425 74.985L108.025 79.86L126.595 112.195L135 107.32L116.425 74.985Z" fill="white" fill-opacity="0.45"/>
</svg>
