<svg width="112" height="120" viewBox="0 0 112 120" fill="none" xmlns="http://www.w3.org/2000/svg">
<path d="M58.5186 23.3773H81.6875L58.5186 0V23.3773Z" fill="#D8890B"/>
<path d="M81.25 31.4583H50V0H0V106.667H81.25V31.4583ZM37.5 50.2083H43.75V56.4583H37.5V50.2083ZM21.875 37.7083C21.8542 37.6985 12.5 37.3133 12.5 28.3333C12.5 24.2665 15.1215 20.8325 18.75 19.5375V12.7083H25V19.5375C28.6285 20.8323 31.25 24.2667 31.25 28.3333H25C25 26.6092 23.5992 25.2083 21.875 25.2083C20.1508 25.2083 18.75 26.6092 18.75 28.3333C18.75 30.0575 20.1508 31.4583 21.875 31.4583C21.8958 31.4681 31.25 31.8533 31.25 40.8333C31.25 44.9002 28.6285 48.3346 25 49.6292V56.4583H18.75V49.6292C15.1215 48.3342 12.5 44.9 12.5 40.8333H18.75C18.75 42.5575 20.1508 43.9583 21.875 43.9583C23.5992 43.9583 25 42.5575 25 40.8333C25 39.1092 23.5992 37.7083 21.875 37.7083ZM68.75 93.9583H12.5V87.7083H68.75V93.9583ZM68.75 81.4583H12.5V75.2083H68.75V81.4583ZM68.75 68.9583H12.5V62.7083H68.75V68.9583ZM68.75 56.4583H50V50.2083H68.75V56.4583Z" fill="#D8890B"/>
<g filter="url(#filter0_b)">
<path d="M81.8532 60C65.3098 60 51.8518 73.4573 51.8518 90C51.8518 106.542 65.3098 120 81.8532 120C98.3948 120 111.852 106.542 111.852 90C111.852 73.4573 98.3948 60 81.8532 60ZM73.1523 74.0733C77.1416 74.0733 80.3883 77.3189 80.3883 81.3098C80.3883 85.2989 77.1416 88.5455 73.1523 88.5455C69.1617 88.5455 65.9154 85.2989 65.9154 81.3098C65.9154 77.3189 69.1621 74.0733 73.1523 74.0733ZM70.9524 103.552C70.5867 103.919 70.1053 104.103 69.6258 104.103C69.1457 104.103 68.6653 103.919 68.2987 103.552C67.566 102.82 67.566 101.631 68.2987 100.899L92.7512 76.447C93.4834 75.7144 94.6718 75.7144 95.4049 76.447C96.1376 77.1797 96.1376 78.3684 95.4049 79.1006L70.9524 103.552ZM90.5128 105.904C86.5226 105.904 83.2759 102.658 83.2759 98.6672C83.2759 94.6781 86.5226 91.4316 90.5128 91.4316C94.5025 91.4316 97.7488 94.6781 97.7488 98.6672C97.7483 102.658 94.5021 105.904 90.5128 105.904Z" fill="white" fill-opacity="0.45"/>
</g>
<defs>
<filter id="filter0_b" x="35.8518" y="44" width="92" height="92" filterUnits="userSpaceOnUse" color-interpolation-filters="sRGB">
<feFlood flood-opacity="0" result="BackgroundImageFix"/>
<feGaussianBlur in="BackgroundImage" stdDeviation="8"/>
<feComposite in2="SourceAlpha" operator="in" result="effect1_backgroundBlur"/>
<feBlend mode="normal" in="SourceGraphic" in2="effect1_backgroundBlur" result="shape"/>
</filter>
</defs>
</svg>
