<svg width="150" height="150" viewBox="0 0 150 150" fill="none" xmlns="http://www.w3.org/2000/svg">
<g clip-path="url(#clip0)">
<path d="M75.0073 141.602L104.723 134.098C121.684 120.013 132.488 98.7697 132.488 75.0003C132.488 38.337 106.791 7.67577 72.4257 0.0436401C32.1964 1.40038 0 34.4402 0 75C0 95.8336 8.49609 114.681 22.2105 128.272L75.0073 141.602Z" fill="#CBE2FF"/>
<path d="M130.932 75C130.932 99.5845 119.101 121.404 100.825 135.082L127.787 128.273C141.502 114.682 150 95.8342 150 75C150 33.5786 116.421 0 74.9999 0C71.7702 0 68.588 0.204492 65.4658 0.600586C102.385 5.28457 130.932 36.8086 130.932 75Z" fill="#BED8FB"/>
<path d="M93.639 28.4039C93.639 24.5734 90.5338 21.4682 86.7032 21.4682H62.8022C53.9865 21.4682 46.8398 28.6149 46.8398 37.4306V55.1532H103.151V37.682C103.151 33.8514 100.046 30.7462 96.2153 30.7462H95.9815C94.6878 30.7462 93.639 29.6977 93.639 28.4039Z" fill="#365E7D"/>
<path d="M96.2152 30.7462H95.9814C94.6877 30.7462 93.6389 29.6974 93.6389 28.4036C93.6389 24.5731 90.5337 21.4679 86.7031 21.4679H84.0825V55.1529H103.151V37.6817C103.151 33.8517 100.046 30.7462 96.2152 30.7462Z" fill="#2B4D66"/>
<path d="M124.525 109.088C122.691 107.277 120.423 105.877 117.848 105.062L97.3722 98.5788L75.0046 97.7927L52.6276 98.5788L32.1518 105.062C25.2248 107.255 20.5171 113.683 20.5171 120.949V126.543C33.6389 140.409 51.9969 149.268 72.4262 149.957C95.3152 144.873 114.359 129.573 124.525 109.088Z" fill="#4A80AA"/>
<path d="M129.483 126.543V120.949C129.483 115.811 127.127 111.095 123.3 107.996C112.427 130.152 90.9494 146.16 65.4834 149.397C68.5572 149.786 71.6879 149.994 74.866 150C77.9196 149.995 80.9328 149.818 83.8965 149.478C101.777 147.365 117.73 138.962 129.483 126.543Z" fill="#407093"/>
<path d="M76.6979 148.877C81.2357 139.868 93.052 114.287 89.6826 98.3084L75.0045 92.5958L60.3127 98.3087C56.8393 114.781 69.5032 141.456 73.6959 149.663C74.7043 149.421 75.7053 149.159 76.6979 148.877Z" fill="#E4F6FF"/>
<path d="M84.4326 141.735L78.4813 118.322H71.5183L65.5815 141.671L72.9228 149.844C74.7863 149.417 76.6241 148.922 78.4335 148.363L84.4326 141.735Z" fill="#E28086"/>
<path d="M73.0378 149.972C73.6457 149.988 74.2548 149.999 74.8662 150C75.5737 149.999 76.2789 149.987 76.982 149.967L80.7634 145.79C77.7871 146.834 74.7253 147.696 71.5908 148.362L73.0378 149.972Z" fill="#DD636E"/>
<path d="M87.5312 96.1473V82.9444H62.459V96.1473C62.459 103.071 74.9951 110.633 74.9951 110.633C74.9951 110.633 87.5312 103.071 87.5312 96.1473Z" fill="#FFDDCE"/>
<path d="M103.151 52.8275H98.3584C95.693 52.8275 93.5323 50.6669 93.5323 48.0015V45.3603C93.5323 41.8884 90.1353 39.4336 86.8389 40.5231C79.1505 43.0644 70.8489 43.0649 63.1603 40.5249L63.1512 40.522C59.8547 39.433 56.4583 41.8878 56.4583 45.3595V48.0018C56.4583 50.6672 54.2977 52.8278 51.6322 52.8278H46.8398V60.7198C46.8398 62.7363 48.4746 64.3714 50.4914 64.3714C51.1277 64.3714 51.6454 64.8697 51.6855 65.5049C52.4555 77.7123 62.5942 87.3762 74.9956 87.3762C87.397 87.3762 97.5357 77.7123 98.3057 65.5049C98.3458 64.87 98.8635 64.3714 99.4998 64.3714C101.516 64.3714 103.151 62.7366 103.151 60.7198V52.8275H103.151Z" fill="#FFDDCE"/>
<path d="M98.3585 52.8275C95.6931 52.8275 93.5324 50.6669 93.5324 48.0015V45.3603C93.5324 41.8884 90.1355 39.4336 86.839 40.5231C85.9284 40.824 85.0088 41.0865 84.083 41.3162V67.3822C83.9547 75.8631 79.3076 83.2441 72.4448 87.2332C73.283 87.3243 74.1332 87.3756 74.9954 87.3756C87.3968 87.3756 97.5356 77.7117 98.3055 65.5043C98.3456 64.8694 98.8633 64.3708 99.4996 64.3708C101.516 64.3708 103.151 62.736 103.151 60.7192V52.8272H98.3585V52.8275Z" fill="#FFCBBE"/>
<path d="M62.4589 92.5958L52.6274 100.584L62.9376 113.332C64.1918 114.553 66.1658 114.628 67.5094 113.506L75.2628 107.029L62.4589 92.5958Z" fill="#F4FBFF"/>
<path d="M87.5357 92.5958L75.2627 107.029L82.55 113.26C83.8851 114.402 85.8685 114.344 87.1353 113.128L97.3716 100.584L87.5357 92.5958Z" fill="#F4FBFF"/>
<path d="M62.4591 92.5958L48.0286 99.6853C46.93 100.225 46.4888 101.561 47.0498 102.649L49.877 108.131C50.6097 109.551 50.3393 111.282 49.2084 112.411C48.6263 112.992 47.9958 113.621 47.4494 114.167C46.4715 115.143 46.1202 116.585 46.5509 117.898C49.9643 128.304 66.3922 144.215 72.6093 149.972C73.0274 149.983 73.4463 149.991 73.8661 149.995C69.3577 141.226 53.3812 107.909 62.4591 92.5958Z" fill="#365E7D"/>
<path d="M100.787 112.411C99.6556 111.282 99.3854 109.551 100.118 108.13L102.945 102.649C103.506 101.561 103.065 100.225 101.966 99.685L87.536 92.5958C96.6116 107.905 80.6463 141.208 76.1328 149.988C76.557 149.981 76.9804 149.97 77.4028 149.956C83.6328 144.186 100.034 128.294 103.444 117.899C103.875 116.586 103.524 115.143 102.546 114.167C101.999 113.621 101.369 112.992 100.787 112.411Z" fill="#365E7D"/>
<path d="M75.2627 107.029L67.6279 113.406L71.518 118.322H78.481L82.3713 113.116L75.2627 107.029Z" fill="#DD636E"/>
</g>
<defs>
<clipPath id="clip0">
<rect width="150" height="150" fill="white"/>
</clipPath>
</defs>
</svg>
