<svg width="24" height="40" viewBox="0 0 24 40" fill="none" xmlns="http://www.w3.org/2000/svg">
<path fill-rule="evenodd" clip-rule="evenodd" d="M4.26584 0H19.7342C20.9088 0 21.9845 0.468187 22.7512 1.21248C23.5301 1.96879 24 3.0012 24 4.14166V35.8583C24 36.9988 23.5178 38.0432 22.7512 38.7875C21.9722 39.5438 20.9088 40 19.7342 40H4.26584C3.09119 40 2.01546 39.5318 1.24884 38.7875C0.469861 38.0312 0 36.9988 0 35.8583V4.14166C0 3.0012 0.482226 1.95678 1.24884 1.21248C2.02782 0.456182 3.09119 0 4.26584 0ZM11.9938 34.91C12.9583 34.91 13.7496 35.6663 13.7496 36.6146C13.7496 37.551 12.9706 38.3193 11.9938 38.3193C11.0294 38.3193 10.238 37.563 10.238 36.6146C10.238 35.6783 11.017 34.91 11.9938 34.91ZM1.21175 33.6134H22.7759V6.42257H1.21175V33.6134Z" fill="white" fill-opacity="0.5"/>
</svg>
