<svg width="0" height="0" class="hidden">
  <symbol viewBox="0 0 30 31" fill="none" xmlns="http://www.w3.org/2000/svg" id='whatsapp'>
  <path d="M0 30.1432L2.11881 22.4027C0.811354 20.1369 0.124341 17.5684 0.125597 14.9347C0.129364 6.70058 6.82994 0 15.0628 0C19.058 0.00125597 22.8083 1.5574 25.6292 4.38081C28.4489 7.20422 30.0013 10.957 30 14.9485C29.9962 23.1839 23.2957 29.8845 15.0628 29.8845C12.5634 29.8832 10.1005 29.2565 7.91886 28.0658L0 30.1432V30.1432ZM8.28561 25.3617C10.3906 26.6114 12.4001 27.36 15.0578 27.3612C21.9003 27.3612 27.4743 21.7923 27.478 14.946C27.4805 8.08591 21.9329 2.52449 15.0678 2.52198C8.2203 2.52198 2.65009 8.09093 2.64758 14.9359C2.64632 17.7305 3.46521 19.8229 4.84049 22.0121L3.58578 26.5938L8.28561 25.3617V25.3617ZM22.5873 18.4991C22.4943 18.3434 22.2457 18.2504 21.8714 18.0633C21.4984 17.8762 19.6634 16.9731 19.3205 16.8488C18.9789 16.7244 18.7302 16.6616 18.4803 17.0359C18.2316 17.4089 17.5157 18.2504 17.2984 18.4991C17.0811 18.7478 16.8626 18.7792 16.4896 18.5921C16.1166 18.4049 14.9133 18.0118 13.4878 16.7395C12.3788 15.7498 11.629 14.5278 11.4117 14.1535C11.1944 13.7805 11.3891 13.5782 11.575 13.3924C11.7433 13.2253 11.948 12.9565 12.1351 12.738C12.3248 12.522 12.3863 12.3662 12.5119 12.1163C12.6363 11.8676 12.5747 11.6491 12.4805 11.4619C12.3863 11.2761 11.6403 9.43858 11.3301 8.69128C11.0261 7.96408 10.7184 8.06204 10.4898 8.05074L9.77393 8.03818C9.52524 8.03818 9.12082 8.13112 8.7792 8.5054C8.43758 8.87968 7.473 9.78146 7.473 11.6189C7.473 13.4564 8.8106 15.2311 8.99648 15.4798C9.18362 15.7285 11.6277 19.4989 15.3718 21.1153C16.2622 21.4996 16.958 21.7295 17.4994 21.9015C18.3936 22.1854 19.2075 22.1452 19.8505 22.0497C20.5677 21.943 22.0585 21.1467 22.37 20.2751C22.6815 19.4022 22.6815 18.6549 22.5873 18.4991V18.4991Z" fill="white" fill-opacity="0.5"/>
  </symbol>
  <symbol fill="none" xmlns="http://www.w3.org/2000/svg" viewBox="0 0 160 146" id="ama-quella-logo">
    <g clip-path="url(#clip0)">
      <path d="M79.793 76.72H67.39c-1.205 0-2.36.373-3.253 1.05-2.433 1.845-6.913 4.045-14.439 4.045-8.894 0-15.777-3.598-19.381-10.131-.714-1.293-2.36-2.128-4.195-2.128H15.12c-2.218 0-4.016-1.388-4.016-3.101s1.798-3.101 4.016-3.101h11.002c5.06 0 9.608 2.316 11.585 5.9 2.329 4.22 6.363 6.359 11.991 6.359 4.81 0 7.446-1.233 8.81-2.267 2.403-1.824 5.558-2.828 8.882-2.828h12.403v6.202z" fill="#101D2C"></path>
      <path d="M21.31 80.892c-1.331 0-2.41-.833-2.41-1.86V63.285c0-1.028 1.079-1.861 2.41-1.861 1.33 0 2.41.833 2.41 1.86v15.747c0 1.028-1.08 1.861-2.41 1.861z" fill="#FFD597"></path>
      <path d="M79.851 77.102h12.403c1.205 0 2.36.345 3.253.971 2.432 1.707 6.912 3.741 14.439 3.741 8.893 0 15.776-3.328 19.381-9.37.713-1.196 2.36-1.969 4.194-1.969h11.003c2.218 0 4.016-1.284 4.016-2.868 0-1.584-1.798-2.868-4.016-2.868h-11.003c-5.06 0-9.607 2.141-11.585 5.456-2.328 3.904-6.362 5.883-11.99 5.883-4.811 0-7.446-1.14-8.81-2.097-2.404-1.687-5.558-2.616-8.882-2.616H79.85v5.737z" fill="#101D2C"></path>
      <path d="M138.405 79.431c-1.332 0-2.41-.77-2.41-1.72V63.144c0-.95 1.079-1.721 2.41-1.721 1.331 0 2.41.77 2.41 1.72l-.001 14.566c.001.95-1.079 1.721-2.409 1.721z" fill="#FFD597"></path>
      <path d="M87.828 142.775H71.874l3.897-74.754h8.16l3.897 74.754z" fill="#FCB44D"></path>
      <path d="M84.244 73.99a22.7 22.7 0 01-4.393.42 22.7 22.7 0 01-4.392-.42l.311-5.97h8.162l.312 5.97z" fill="#FB9927"></path>
      <path d="M32.139 119.498c-.705 0-1.349-.385-1.534-.964L21.35 89.572l-9.253 28.962c-.22.688-1.084 1.101-1.933.922-.848-.178-1.356-.88-1.136-1.569l10.788-33.764c.18-.568.812-.964 1.535-.964.722 0 1.353.396 1.534.963l10.789 33.765c.22.689-.29 1.391-1.137 1.569a1.947 1.947 0 01-.4.042zm116.705 0c-.705 0-1.348-.385-1.534-.964l-9.253-28.962-9.253 28.962c-.22.688-1.085 1.101-1.933.922-.848-.178-1.357-.88-1.137-1.569l10.788-33.764c.181-.568.813-.964 1.535-.964s1.354.396 1.535.963l10.788 33.765c.22.689-.289 1.391-1.137 1.569a1.94 1.94 0 01-.399.042z" fill="#FFD597"></path>
      <path d="M146.154 126.92h-15.498c-7.482 0-13.548-4.781-13.548-10.68v-1.23c0-1.673 1.721-3.029 3.843-3.029h34.908c2.122 0 3.843 1.356 3.843 3.029v1.23c0 5.898-6.066 10.68-13.548 10.68z" fill="#FCB44D"></path>
      <path d="M42.445 117.414c-.08.913-.478 1.781-1.134 2.574H30.476c.659-.792 1.057-1.661 1.137-2.574h10.832z" fill="#F98824"></path>
      <path d="M138.405 85.074c3.337 0 6.043-2.385 6.043-5.328 0-2.942-2.706-5.328-6.043-5.328-3.338 0-6.043 2.386-6.043 5.328 0 2.943 2.705 5.328 6.043 5.328zM29.046 126.92H13.549C6.066 126.92 0 122.138 0 116.24v-1.23c0-1.673 1.72-3.029 3.843-3.029h34.908c2.123 0 3.843 1.356 3.843 3.029v1.23c0 5.898-6.066 10.68-13.548 10.68zm-7.749-41.846c3.338 0 6.043-2.385 6.043-5.328 0-2.942-2.705-5.328-6.043-5.328-3.337 0-6.043 2.386-6.043 5.328 0 2.943 2.706 5.328 6.043 5.328z" fill="#FCB44D"></path>
      <path d="M79.851 116.942c5.741 0 10.395-3.491 10.395-7.796 0-4.306-4.654-7.796-10.395-7.796-5.74 0-10.395 3.49-10.395 7.796 0 4.305 4.654 7.796 10.395 7.796z" fill="#FB9927"></path>
      <path d="M79.85 71.062c4.316 0 7.814-1.868 7.814-4.172 0-2.305-3.498-4.173-7.813-4.173-4.315 0-7.813 1.868-7.813 4.172 0 2.305 3.498 4.173 7.813 4.173z" fill="#FFD597"></path>
      <path d="M87.666 66.89c0 2.304-3.5 4.171-7.815 4.171-1.227 0-2.386-.15-3.42-.42 2.598-.678 4.39-2.102 4.39-3.75 0-1.65-1.792-3.075-4.39-3.754a13.63 13.63 0 013.42-.42c4.314 0 7.815 1.867 7.815 4.173z" fill="#FCC16D"></path>
      <path d="M111.825 139.23H47.878v-4.478c0-1.422 2.157-2.574 4.82-2.574h54.307c2.662 0 4.82 1.152 4.82 2.574v4.478z" fill="#101D2C"></path>
      <path d="M122.343 143.998H37.359c-1.775 0-3.213-.768-3.213-1.716V139.5c0-.948 1.438-1.716 3.213-1.716h84.984c1.775 0 3.213.768 3.213 1.716v2.782c0 .948-1.438 1.716-3.213 1.716z" fill="#FB9927"></path>
      <path d="M90.962 120.407H68.741c-1.775 0-3.214-.768-3.214-1.716v-2.2c0-.948 1.439-1.716 3.214-1.716h22.221c1.775 0 3.213.768 3.213 1.716v2.2c0 .948-1.438 1.716-3.213 1.716z" fill="#FFD597"></path>
    </g>
    <g clip-path="url(#clip1)">
      <path d="M66.095 61.233c.635.266 1.774 1.41 2.352 1.614 1.867 3.21 4.118 14.522 11.403 14.522s10.984-2.904 12.849-6.115c.578-.204-.274-9.755.361-10.021l2.006 7.217 10.85 2.464v14.523l-2.547 2.522a1.603 1.603 0 00-.394 1.65l.596 1.776c.164.49.08 1.03-.225 1.45-.306.42-.797.669-1.319.67H57.673c-.523 0-1.014-.25-1.32-.671a1.602 1.602 0 01-.224-1.453l.596-1.775a1.6 1.6 0 00-.394-1.65l-2.546-2.52V70.915l10.854-2.464 1.456-7.217z" fill="#101D2C"></path>
      <path d="M104.034 52.845a4.852 4.852 0 11-9.703 0 4.852 4.852 0 019.703 0zm-38.892 0a4.852 4.852 0 11-9.704-.001 4.852 4.852 0 019.704.001z" fill="#F59F57"></path>
      <path d="M80.055 43.66h-22.64c0 8.085 8.086 24.256 11.32 25.873 5.737 4.94 11.32 4.94 11.32 4.94s6.001 0 11.32-4.94c3.234-1.617 11.319-17.788 11.319-25.873H80.055z" fill="#FFD597"></path>
      <path d="M39.651 43.66a3.25 3.25 0 01-3.248-3.484C38.289 17.47 57.27 0 80.055 0c22.786 0 41.766 17.469 43.653 40.176a3.248 3.248 0 01-3.249 3.484H39.651z" fill="#FCB44D"></path>
      <path d="M44.479 43.66c0-19.649 15.928-35.577 35.576-35.577s35.577 15.928 35.577 35.577H44.479z" fill="#942714"></path>
      <path d="M50.947 43.66c0-16.077 13.032-29.109 29.108-29.109s29.108 13.032 29.108 29.109H50.947z" fill="#101D2C"></path>
      <path d="M54.181 85.704l-6.144 1.231a1.617 1.617 0 01-1.941-1.587V71.507a1.618 1.618 0 011.94-1.587l6.145 1.231v14.554z" fill="#FB9927"></path>
      <path d="M62.267 37.19a1.617 1.617 0 11-3.234.002 1.617 1.617 0 013.234-.001zm3.234-6.467a1.617 1.617 0 11-3.233 0 1.617 1.617 0 013.233 0zm6.469-4.852a1.617 1.617 0 11-3.235 0 1.617 1.617 0 013.235 0zm9.702-1.617a1.617 1.617 0 11-3.234 0 1.617 1.617 0 013.234 0z" fill="#FCB44D"></path>
      <path d="M48.225 49.292a6.195 6.195 0 00-6.172-5.632 6.195 6.195 0 00-6.17 5.632L35.1 57.92a3.236 3.236 0 003.218 3.527h7.471s2.375-.327 3.032-1.041c.185-.311.197-2.395.185-2.486l-.78-8.628z" fill="#BFA057"></path>
      <path d="M96.226 43.66s1.617 4.85-3.234 4.85c-4.852 0-6.469-4.85-6.469-4.85h9.703zm-32.342 0s-1.617 4.85 3.234 4.85c4.852 0 6.468-4.85 6.468-4.85h-9.702z" fill="#101D2C"></path>
      <path d="M89.366 61.033c0 .593 0 1.224-.095 1.855H70.429c-.094-.631-.094-1.262-.094-1.855 0-2.783 9.515-.718 9.515-.718s9.516-2.065 9.516.718z" fill="#942714"></path>
      <path d="M89.366 62.06c-.336 4.171-1.954 8.275-9.515 8.275-7.562 0-9.18-4.104-9.516-8.274h19.031z" fill="#C64E3A"></path>
      <path d="M80.264 45.511l-5.792 9.93a14.827 14.827 0 015.792-.228 14.827 14.827 0 015.793.228l-5.793-9.93z" fill="#BFA057"></path>
      <path d="M91.375 69.533c-6.56 5.767-11.32 4.526-11.32 4.526s-4.342 1.241-11.32-4.526a11.328 11.328 0 01-3.187-3.675c.438 4.225 2.864 11.76 14.507 11.76s14.069-7.535 14.507-11.76a11.33 11.33 0 01-3.187 3.675z" fill="#101D2C"></path>
      <path d="M105.929 85.704l6.145 1.231a1.617 1.617 0 001.941-1.587V71.507a1.62 1.62 0 00-1.941-1.587l-6.145 1.231v14.554z" fill="#FB9927"></path>
      <path d="M101.077 37.19a1.617 1.617 0 11-3.234 0 1.617 1.617 0 013.234 0zm-3.234-6.467a1.616 1.616 0 11-3.233 0 1.616 1.616 0 013.233 0zm-6.468-4.852a1.617 1.617 0 11-3.235 0 1.617 1.617 0 013.235 0z" fill="#FCB44D"></path>
      <path d="M111.885 49.292a6.194 6.194 0 016.172-5.632 6.195 6.195 0 016.169 5.632l.785 8.628a3.237 3.237 0 01-3.218 3.527h-7.472c-.725-.001-1.785-.214-1.785-.214s-.651-.174-1.242-.827c0-.085-.202-2.395-.189-2.486l.78-8.628z" fill="#BFA057"></path>
      <path d="M68.735 43.66c0-6.252 5.068-11.32 11.32-11.32 6.251 0 11.32 5.068 11.32 11.32h-22.64z" fill="#FB9927"></path>
      <path fill="#942714" d="M78.94 77.782h2.648v13.239H78.94z"></path>
      <path fill="#942714" d="M73.644 85.726v-2.648h13.24v2.648z"></path>
      <path fill="#942714" d="M76.292 80.43h7.944v7.944h-7.944z"></path>
    </g>
    <defs>
      <clipPath id="clip0">
        <path fill="#fff" transform="translate(0 60.715)" d="M0 0h159.702v85.285H0z"></path>
      </clipPath>
      <clipPath id="clip1">
        <path fill="#fff" transform="translate(33.074)" d="M0 0h93.79v93.79H0z"></path>
      </clipPath>
    </defs>
  </symbol>
  <symbol fill="none" xmlns="http://www.w3.org/2000/svg" viewBox="0 0 120 124" id="coins">
    <path d="M85 22.5c13.365 0 25-5.035 25-11.25S98.365 0 85 0C71.64 0 60 5.035 60 11.25S71.64 22.5 85 22.5zm.465-10.045c-1.495-.45-6.07-.83-6.07-3.375 0-1.42 1.67-2.685 4.79-2.965V5h1.605v1.055c1.17.025 2.47.15 3.92.45l-.58 1.71c-1.105-.255-2.335-.495-3.54-.495l-.36.005c-2.41.1-2.605 1.435-.94 1.995 2.735.845 6.335 1.46 6.335 3.7 0 1.785-2.17 2.74-4.835 2.98v1.1h-1.605v-1.04c-1.64-.015-3.38-.28-4.81-.76l.735-1.715c1.22.315 2.76.63 4.14.63l1.04-.07c1.845-.265 2.215-1.5.175-2.09zM30 77.5c7.225 0 14.55-.88 18.525-3.84 3.975-2.96 5.99-2.96 5.99-9.495C52.26 58.95 41.82 55 30 55 16.64 55 5 60.035 5 66.25S16.64 77.5 30 77.5zm.465-10.045c-1.495-.45-6.07-.83-6.07-3.375 0-1.42 1.675-2.685 4.79-2.965V60h1.605v1.055c1.17.025 2.47.15 3.92.45l-.585 1.71c-1.1-.255-2.33-.495-3.535-.495l-.36.005c-2.41.1-2.6 1.435-.94 1.995 2.735.845 6.335 1.46 6.335 3.7 0 1.785-2.17 2.74-4.835 2.98v1.1h-1.605v-1.04c-1.645-.015-3.38-.28-4.81-.76l.735-1.715c1.22.315 2.76.63 4.14.63l1.04-.07c1.84-.265 2.215-1.5.175-2.09zM60 23.75v-3.26c5.73 4.59 15.545 7.01 25 7.01 9.46 0 19.27-2.42 25-7.01v3.26C110 29.965 98.365 35 85 35c-13.36 0-25-5.035-25-11.25zm0 12.5v-3.255C65.73 37.58 75.545 40 85 40c9.46 0 19.27-2.42 25-7.005v3.255c0 6.215-11.635 11.25-25 11.25-13.36 0-25-5.035-25-11.25z" fill="#D8890B"></path>
    <path d="M60.23 46.55v3.255c0 6.215 11.64 11.25 25 11.25 13.365 0 25-5.035 25-11.25V46.55c-5.73 4.585-15.54 7.005-25 7.005-9.455 0-19.27-2.42-25-7.005zm-30 53.94c8.28 0 21.5-4.5 23-9.5v-3.5c-5.25 2-16.82 5.5-23 5.5-9.455 0-19.27-2.42-25-7.01v3.26c0 6.215 11.64 11.25 25 11.25z" fill="#D8890B"></path>
    <path d="M30.23 88.49c8.28 0 21.5-4.5 23-9.5v-3.5c-5.25 2-16.82 5.5-23 5.5-9.455 0-19.27-2.42-25-7.01v3.26c0 6.215 11.64 11.25 25 11.25z" fill="#D8890B"></path>
    <path d="M30.23 100.49c8.28 0 21.5-4.5 23-9.5v-3.5c-5.25 2-16.82 5.5-23 5.5-9.455 0-19.27-2.42-25-7.01v3.26c0 6.215 11.64 11.25 25 11.25z" fill="#D8890B"></path>
    <path d="M30.29 112.5c8.28 0 21.5-4.5 23-9.5v-3.5c-5.25 2-16.82 5.5-23 5.5-9.455 0-19.27-2.42-25-7.01v3.26c0 6.215 11.64 11.25 25 11.25z" fill="#D8890B"></path>
    <g>
      <path d="M77.583 41c-22.915 0-41.5 18.585-41.5 41.5s18.585 41.5 41.5 41.5 41.5-18.585 41.5-41.5S100.498 41 77.583 41zm3.459 58.612v3.638h-3.459v-3.451c-3.583-.063-7.283-.913-10.375-2.511l1.577-5.686c3.306 1.287 7.705 2.65 11.15 1.868 3.97-.9 4.786-4.987.394-6.951-3.216-1.501-13.065-2.78-13.065-11.22 0-4.71 3.596-8.936 10.32-9.856V61.75h3.458v3.52c2.503.07 5.312.505 8.445 1.453l-1.252 5.7c-2.656-.934-5.589-1.778-8.452-1.605-5.146.297-5.603 4.758-2.006 6.626 5.92 2.78 13.64 4.842 13.64 12.263.007 5.935-4.648 9.096-10.375 9.905z" fill="#fff" fill-opacity=".45"></path>
    </g>
    <defs>
      <filter id="filter0_b" x="20.083" y="25" width="115" height="115" filterUnits="userSpaceOnUse" color-interpolation-filters="sRGB">
        <feFlood flood-opacity="0" result="BackgroundImageFix"></feFlood>
        <feGaussianBlur in="BackgroundImage" stdDeviation="8"></feGaussianBlur>
        <feComposite in2="SourceAlpha" operator="in" result="effect1_backgroundBlur"></feComposite>
        <feBlend in="SourceGraphic" in2="effect1_backgroundBlur" result="shape"></feBlend>
      </filter>
    </defs>
  </symbol>
  <symbol fill="none" xmlns="http://www.w3.org/2000/svg" viewBox="0 0 150 172" id="contact">
    <path d="M60 115.565L.075 67H119.93L60 115.565zm-27.125-9.11L0 79.81v62.505l32.875-35.86zm54.25 0L120 142.315V79.81l-32.875 26.645zm-7.785 6.305L60 128.435 40.66 112.76.11 157h119.78l-40.55-44.24z" fill="#D8890B"></path>
    <path d="M122.4 114.63l-5.965 3.29C81.54 136.025 21.025 30.45 55.04 10.5l5.725-3.185 18.57 32.335-5.695 3.16c-10.335 6.225 13.8 48.535 24.395 42.725l5.81-3.21L122.4 114.63zM73.36 0l-8.4 4.875 18.57 32.33 8.405-4.875L73.36 0zm43.065 74.985l-8.4 4.875 18.57 32.335L135 107.32l-18.575-32.335z" fill="#fff" fill-opacity=".45"></path>
  </symbol>
  <symbol fill="none" xmlns="http://www.w3.org/2000/svg" viewBox="0 0 112 120" id="declare">
    <path d="M58.519 23.377h23.169L58.517 0v23.377z" fill="#D8890B"></path>
    <path d="M81.25 31.458H50V0H0v106.667h81.25V31.458zM37.5 50.208h6.25v6.25H37.5v-6.25zm-15.625-12.5c-.02-.01-9.375-.395-9.375-9.375 0-4.066 2.621-7.5 6.25-8.795v-6.83H25v6.83c3.628 1.294 6.25 4.729 6.25 8.795H25c0-1.724-1.4-3.125-3.125-3.125a3.127 3.127 0 00-3.125 3.125c0 1.725 1.4 3.125 3.125 3.125.02.01 9.375.395 9.375 9.375 0 4.067-2.622 7.502-6.25 8.796v6.83h-6.25v-6.83c-3.629-1.295-6.25-4.729-6.25-8.796h6.25c0 1.724 1.4 3.125 3.125 3.125 1.724 0 3.125-1.4 3.125-3.125 0-1.724-1.4-3.125-3.125-3.125zm46.875 56.25H12.5v-6.25h56.25v6.25zm0-12.5H12.5v-6.25h56.25v6.25zm0-12.5H12.5v-6.25h56.25v6.25zm0-12.5H50v-6.25h18.75v6.25z" fill="#D8890B"></path>
    <g>
      <path d="M81.853 60C65.31 60 51.852 73.457 51.852 90c0 16.542 13.458 30 30.001 30 16.542 0 29.999-13.458 29.999-30 0-16.543-13.457-30-29.999-30zm-8.7 14.073c3.989 0 7.235 3.246 7.235 7.237 0 3.989-3.246 7.236-7.236 7.236-3.99 0-7.237-3.247-7.237-7.236 0-3.991 3.247-7.237 7.237-7.237zm-2.2 29.479a1.869 1.869 0 01-2.654 0 1.876 1.876 0 010-2.653L92.75 76.447a1.877 1.877 0 012.654 2.654l-24.453 24.451zm19.56 2.352c-3.99 0-7.237-3.246-7.237-7.237 0-3.989 3.247-7.235 7.237-7.235s7.236 3.246 7.236 7.235c0 3.991-3.247 7.237-7.236 7.237z" fill="#fff" fill-opacity=".45"></path>
    </g>
    <defs>
      <filter id="filter0_b" x="35.852" y="44" width="92" height="92" filterUnits="userSpaceOnUse" color-interpolation-filters="sRGB">
        <feFlood flood-opacity="0" result="BackgroundImageFix"></feFlood>
        <feGaussianBlur in="BackgroundImage" stdDeviation="8"></feGaussianBlur>
        <feComposite in2="SourceAlpha" operator="in" result="effect1_backgroundBlur"></feComposite>
        <feBlend in="SourceGraphic" in2="effect1_backgroundBlur" result="shape"></feBlend>
      </filter>
    </defs>
  </symbol>
  <symbol fill="none" xmlns="http://www.w3.org/2000/svg" viewBox="0 0 129 114" id="done">
    <g clip-path="url(#clip0)">
      <path d="M66.737 13.256H80.07v22.093H66.737V13.256zm40.022 4.418v88.373H0V0h88.966l17.793 17.674zM22.241 39.767h62.276V8.837H22.241v30.93zm71.173 17.675h-80.07v39.767h80.07V57.442z" fill="#D8890B"></path>
    </g>
    <g clip-path="url(#clip1)">
      <path d="M65.612 107.372h-16.68V67.605h16.68v39.767zm58.767-27.877c-2.859-.381-1.928-2.432.104-3.055 1.738-.53 4.517-1.657 4.517-5.004 0-2.227-1.668-5.177-7.576-4.938-4.097.165-12.231-.656-16.611-2.933 3.022-12.116 2.295-29.1-5.632-29.1-5.318 0-6.325 5.988-7.923 11.496-4.074 14.058-11.05 19.94-18.973 22.817v36.049C86.904 107.15 93.453 114 107.33 114c10.67 0 16.188-5.75 16.188-8.835 0-1.11-.908-1.899-3.203-2.075-2.706-.205-2.449-2.69.103-3.158 4.231-.775 6.092-3.029 6.092-5.113 0-1.753-1.321-3.387-3.663-3.914-2.792-.626-2.215-2.509.104-2.69 3.779-.3 5.631-2.533 5.631-4.674 0-1.872-1.414-3.675-4.204-4.046z" fill="#fff" fill-opacity=".45"></path>
    </g>
    <defs>
      <clipPath id="clip0">
        <path fill="#fff" d="M0 0h106.759v106.047H0z"></path>
      </clipPath>
      <clipPath id="clip1">
        <path fill="#fff" transform="translate(48.931 34.465)" d="M0 0h80.069v79.535H0z"></path>
      </clipPath>
      <filter id="filter0_b" x="32.931" y="18.465" width="112.069" height="111.535" filterUnits="userSpaceOnUse" color-interpolation-filters="sRGB">
        <feFlood flood-opacity="0" result="BackgroundImageFix"></feFlood>
        <feGaussianBlur in="BackgroundImage" stdDeviation="8"></feGaussianBlur>
        <feComposite in2="SourceAlpha" operator="in" result="effect1_backgroundBlur"></feComposite>
        <feBlend in="SourceGraphic" in2="effect1_backgroundBlur" result="shape"></feBlend>
      </filter>
    </defs>
  </symbol>
  <symbol fill="none" xmlns="http://www.w3.org/2000/svg" viewBox="0 0 137 120" id="fill">
    <path d="M88.552 33.879L90 110H10V10h36.81C67.59 10 61 36 61 36s18.781-4.631 27.552-2.121L97 29.455C88.552 0 61.285 0 50.945 0H0v120h100l-3-90.545-8.448 4.424z" fill="#D8890B"></path>
    <path d="M27.5 69.5H79V65H27.5v4.5zm-11.5 0h3V65h-3v4.5zm11.5 14H79V79H27.5v4.5zm-11.5 0h3V79h-3v4.5zM27.5 98H79v-4.5H27.5V98zM16 98h3v-4.5h-3V98z" fill="#D8890B"></path>
    <g clip-path="url(#clip0)">
      <path d="M116.374 10.252l10.375 10.374-54.492 54.491-12.988 2.617L61.89 64.74l54.484-54.488zm0-10.252L55.213 61.161 50 87l25.835-5.21L137 20.624 116.374 0zm-.076 18.14l-46.14 46.138 2.564 2.567 46.139-46.139-2.563-2.566z" fill="#fff" fill-opacity=".45"></path>
    </g>
    <defs>
      <clipPath id="clip0">
        <path fill="#fff" transform="translate(50)" d="M0 0h87v87H0z"></path>
      </clipPath>
      <filter id="filter0_b" x="34" y="-16" width="119" height="119" filterUnits="userSpaceOnUse" color-interpolation-filters="sRGB">
        <feFlood flood-opacity="0" result="BackgroundImageFix"></feFlood>
        <feGaussianBlur in="BackgroundImage" stdDeviation="8"></feGaussianBlur>
        <feComposite in2="SourceAlpha" operator="in" result="effect1_backgroundBlur"></feComposite>
        <feBlend in="SourceGraphic" in2="effect1_backgroundBlur" result="shape"></feBlend>
      </filter>
    </defs>
  </symbol>
  <symbol fill="none" xmlns="http://www.w3.org/2000/svg" viewBox="0 0 150 150" id="man-icon">
    <g clip-path="url(#clip0)">
      <path d="M75.007 141.602l29.716-7.504C121.684 120.013 132.488 98.77 132.488 75c0-36.663-25.697-67.324-60.062-74.956C32.196 1.4 0 34.44 0 75c0 20.834 8.496 39.681 22.21 53.272l52.797 13.33z" fill="#CBE2FF"></path>
      <path d="M130.932 75c0 24.585-11.831 46.404-30.107 60.082l26.962-6.809C141.502 114.682 150 95.834 150 75c0-41.421-33.579-75-75-75-3.23 0-6.412.204-9.534.6 36.919 4.685 65.466 36.209 65.466 74.4z" fill="#BED8FB"></path>
      <path d="M93.639 28.404a6.936 6.936 0 00-6.936-6.936h-23.9c-8.816 0-15.963 7.147-15.963 15.963v17.722h56.311V37.682a6.936 6.936 0 00-6.936-6.936h-.234a2.342 2.342 0 01-2.342-2.342z" fill="#365E7D"></path>
      <path d="M96.215 30.746h-.234a2.343 2.343 0 01-2.342-2.342 6.936 6.936 0 00-6.936-6.936h-2.62v33.685h19.068V37.682a6.936 6.936 0 00-6.936-6.936z" fill="#2B4D66"></path>
      <path d="M124.525 109.088a16.63 16.63 0 00-6.677-4.026l-20.476-6.483-22.367-.786-22.377.786-20.476 6.483a16.664 16.664 0 00-11.635 15.887v5.594c13.122 13.866 31.48 22.725 51.91 23.414 22.888-5.084 41.932-20.384 52.098-40.869z" fill="#4A80AA"></path>
      <path d="M129.483 126.543v-5.594c0-5.138-2.356-9.854-6.183-12.953-10.873 22.156-32.35 38.164-57.817 41.401 3.074.389 6.205.597 9.383.603a80.366 80.366 0 009.03-.522c17.881-2.113 33.834-10.516 45.587-22.935z" fill="#407093"></path>
      <path d="M76.698 148.877c4.538-9.009 16.354-34.59 12.985-50.569l-14.679-5.712-14.691 5.713c-3.474 16.472 9.19 43.147 13.383 51.354a75.186 75.186 0 003.002-.786z" fill="#E4F6FF"></path>
      <path d="M84.433 141.735l-5.952-23.413h-6.963l-5.936 23.349 7.34 8.173a76.721 76.721 0 005.511-1.481l6-6.628z" fill="#E28086"></path>
      <path d="M73.038 149.972a74.06 74.06 0 001.828.028 78.286 78.286 0 002.116-.033l3.781-4.177a74.46 74.46 0 01-9.172 2.572l1.447 1.61z" fill="#DD636E"></path>
      <path d="M87.531 96.147V82.944H62.46v13.203c0 6.924 12.536 14.486 12.536 14.486s12.536-7.562 12.536-14.486z" fill="#FFDDCE"></path>
      <path d="M103.151 52.828h-4.793A4.826 4.826 0 0193.532 48v-2.64c0-3.473-3.397-5.927-6.693-4.838a37.733 37.733 0 01-23.679.002l-.009-.003c-3.296-1.089-6.693 1.366-6.693 4.837v2.643a4.826 4.826 0 01-4.826 4.826H46.84v7.892a3.652 3.652 0 003.651 3.651 1.2 1.2 0 011.194 1.134c.77 12.207 10.91 21.871 23.31 21.871 12.402 0 22.54-9.664 23.31-21.871A1.2 1.2 0 0199.5 64.37a3.652 3.652 0 003.651-3.651v-7.892z" fill="#FFDDCE"></path>
      <path d="M98.359 52.828A4.826 4.826 0 0193.532 48v-2.64c0-3.473-3.397-5.927-6.693-4.838-.91.301-1.83.563-2.756.793v26.066c-.128 8.481-4.775 15.862-11.638 19.851.838.091 1.688.143 2.55.143 12.402 0 22.54-9.664 23.31-21.872A1.2 1.2 0 0199.5 64.37a3.652 3.652 0 003.651-3.652v-7.892h-4.792z" fill="#FFCBBE"></path>
      <path d="M62.459 92.596l-9.832 7.988 10.31 12.748a3.415 3.415 0 004.572.174l7.754-6.477-12.804-14.433zm25.077 0l-12.273 14.433 7.287 6.231a3.416 3.416 0 004.585-.132l10.237-12.544-9.836-7.988z" fill="#F4FBFF"></path>
      <path d="M62.46 92.596l-14.431 7.09a2.186 2.186 0 00-.98 2.963l2.828 5.482a3.67 3.67 0 01-.669 4.28l-1.759 1.756a3.661 3.661 0 00-.898 3.731c3.413 10.406 19.841 26.317 26.058 32.074.418.011.837.019 1.257.023-4.508-8.769-20.485-42.086-11.407-57.4zm38.327 19.815a3.67 3.67 0 01-.669-4.281l2.827-5.481a2.186 2.186 0 00-.979-2.964l-14.43-7.09c9.076 15.31-6.89 48.613-11.403 57.393.424-.007.847-.018 1.27-.032 6.23-5.77 22.631-21.662 26.041-32.057a3.662 3.662 0 00-.898-3.732l-1.759-1.756z" fill="#365E7D"></path>
      <path d="M75.263 107.029l-7.635 6.377 3.89 4.916h6.963l3.89-5.206-7.108-6.087z" fill="#DD636E"></path>
    </g>
    <defs>
      <clipPath id="clip0">
        <path fill="#fff" d="M0 0h150v150H0z"></path>
      </clipPath>
    </defs>
  </symbol>
  <symbol fill="none" xmlns="http://www.w3.org/2000/svg" viewBox="0 0 134 120" id="user-icon">
    <path d="M100.555 69.766c-9.457-9.595-21.995-14.88-35.304-14.88H49.898c-13.308 0-25.846 5.285-35.304 14.88C5.183 79.314 0 91.918 0 105.256a3.837 3.837 0 003.838 3.835h107.473a3.837 3.837 0 003.839-3.835c0-13.338-5.183-25.942-14.595-35.49z" fill="#D8890B"></path>
    <g>
      <path d="M57.182 0C38.134 0 22.638 15.484 22.638 34.517s15.496 34.517 34.544 34.517c19.048 0 34.545-15.484 34.545-34.517S76.23 0 57.182 0z" fill="#fff" fill-opacity=".45"></path>
    </g>
    <g >
      <path d="M126.782 90.843h-1.031v-6.248c0-5.74-4.628-10.413-10.311-10.413-5.684 0-10.312 4.673-10.312 10.413v6.248h-1.031c-3.98 0-7.218 3.27-7.218 7.29v14.577c0 4.02 3.238 7.29 7.218 7.29h22.685c3.98 0 7.218-3.27 7.218-7.29V98.132c0-4.02-3.238-7.29-7.218-7.29zm-15.467-6.248c0-2.295 1.852-4.165 4.125-4.165 2.272 0 4.124 1.87 4.124 4.165v6.248h-8.249v-6.248z" fill="#fff" fill-opacity=".45"></path>
    </g>
    <defs>
      <filter id="filter0_b" x="6.637" y="-16" width="101.09" height="101.034" filterUnits="userSpaceOnUse" color-interpolation-filters="sRGB">
        <feFlood flood-opacity="0" result="BackgroundImageFix"></feFlood>
        <feGaussianBlur in="BackgroundImage" stdDeviation="8"></feGaussianBlur>
        <feComposite in2="SourceAlpha" operator="in" result="effect1_backgroundBlur"></feComposite>
        <feBlend in="SourceGraphic" in2="effect1_backgroundBlur" result="shape"></feBlend>
      </filter>
      <filter id="filter1_b" x="80.879" y="58.182" width="69.121" height="77.818" filterUnits="userSpaceOnUse" color-interpolation-filters="sRGB">
        <feFlood flood-opacity="0" result="BackgroundImageFix"></feFlood>
        <feGaussianBlur in="BackgroundImage" stdDeviation="8"></feGaussianBlur>
        <feComposite in2="SourceAlpha" operator="in" result="effect1_backgroundBlur"></feComposite>
        <feBlend in="SourceGraphic" in2="effect1_backgroundBlur" result="shape"></feBlend>
      </filter>
    </defs>
  </symbol>
  <symbol fill="none" xmlns="http://www.w3.org/2000/svg" viewBox="0 0 150 149" id="woman-icon">
    <g clip-path="url(#clip0)">
      <path d="M149.865 74.865c0 18.02-6.369 34.555-16.976 47.475-13.73 16.722-34.564 12.568-57.89 12.568-23.324 0-44.158 4.154-57.888-12.568C6.504 109.42.135 92.885.135 74.865.135 33.52 33.655 0 75 0c41.345 0 74.865 33.52 74.865 74.865z" fill="#5DE9F4"></path>
      <path d="M60.344 79.741h29.312v31.086H60.344V79.741z" fill="#EAA678"></path>
      <path d="M75 79.742h14.656v31.086H75V79.742z" fill="#D38C5B"></path>
      <path d="M60.344 99.253h29.312v31.086H60.344V99.253z" fill="#FFC397"></path>
      <path d="M75 99.253h14.656v31.086H75V99.253z" fill="#EAA678"></path>
      <path d="M125 112.054l1.786 16.071c-3.045 3.72-5.608 4.152-9.375 7.143-2.656 2.107-5.521 3.665-8.482 5.357-9.764 5.578-21.89 7.589-33.929 7.589-12.04 0-23.336-3.185-33.099-8.762-2.961-1.692-5.74-2.845-9.758-5.077-4.205-2.336-5.884-3.423-8.929-7.143v-14.246c0-7.664 6.195-13.879 13.84-13.879h23.288l10.088 14.537L75 126.25l4.57-12.606 10.088-14.537h23.289c7.644 0 12.053 5.283 12.053 12.947z" fill="#4A80AA"></path>
      <path d="M125.446 113.393l1.334 14.732c-11.601 14.286-30.916 20.089-51.78 20.089v-21.899l4.57-12.569 10.086-14.494h23.286c7.643 0 12.504 6.5 12.504 14.141z" fill="#407093"></path>
      <path d="M62.083 114.796l8.347 33.418H75v-22.321l-4.57-12.148-8.347 1.051z" fill="#399E73"></path>
      <path d="M87.917 114.796l-8.347 33.418H75v-21.875l4.57-12.594 8.347 1.051z" fill="#207F54"></path>
      <path d="M98.084 54.105C97.11 39.299 85.134 33.828 75 33.828s-22.11 5.471-23.085 20.277c-2.62.507-4.482 3.943-4.189 6.722l.45 6.325c.307 2.918 2.872 5.048 5.7 4.731l.487-.052C60.153 87.38 69.235 89 75 89.912c5.764-.91 14.846-2.531 20.637-18.082l.487.053c2.827.317 5.392-1.813 5.7-4.731l.449-6.325c.293-2.779-1.568-6.215-4.189-6.722z" fill="#FFC397"></path>
      <path d="M102.273 60.827l-.449 6.325c-.307 2.918-2.873 5.048-5.7 4.731l-.487-.052c-1.98 5.308-4.34 8.995-6.822 11.581-4.784 4.992-10.018 5.9-13.816 6.5V33.828c10.134 0 22.11 5.471 23.085 20.277 2.621.507 4.482 3.943 4.189 6.722z" fill="#EAA678"></path>
      <path d="M60.343 93.27L49.661 99.9l8.69 21.948 12.079-8.102-10.087-20.474z" fill="#5BBC96"></path>
      <path d="M89.656 93.27l10.684 6.63-8.69 21.948-12.08-8.102 10.087-20.474z" fill="#399E73"></path>
      <path d="M82.465 32.465c4.333-4.333 4.333-11.358 0-15.691s-11.358-4.333-15.69 0c-4.334 4.333-4.334 11.358 0 15.69 4.332 4.334 11.357 4.334 15.69 0z" fill="#3D3D3D"></path>
      <path d="M86.096 25.382c0 .952-.12 1.875-.348 2.757-1.224 4.795-5.571 8.34-10.748 8.34V14.285c6.129 0 11.096 4.967 11.096 11.096z" fill="#242625"></path>
      <path d="M85.105 27.509C83.365 25.995 80.588 25 76.296 25c-25.9 0-26.811 22.783-22.627 33.756 0 0 17.027-1.26 29.72-15.393 4.528 9.93 14.66 15.393 14.66 15.393 4.065-22.644-6.12-28.997-12.944-31.247z" fill="#515151"></path>
      <path d="M97.97 58.757s-10.132-5.462-14.66-15.394A45.995 45.995 0 0175 50.627V25.018A37.5 37.5 0 0176.216 25c4.293 0 7.068.994 8.81 2.509.238.078.479.162.722.248 6.793 2.461 16.145 9.14 12.221 31z" fill="#3D3D3D"></path>
      <path d="M129.464 125.777v-5.351c0-4.914-1.939-9.426-5.089-12.39-8.949 21.193-26.628 36.505-47.59 39.602a53.77 53.77 0 007.724.576 56.942 56.942 0 007.433-.499c14.717-2.021 27.848-10.059 37.522-21.938z" fill="#315A78"></path>
      <path d="M132.881 73.368c0 24.05-6.542 31.543-8.328 34.668l5.505 17.446C142.371 112.187 150 93.749 150 73.368 150 32.848 119.854 0 82.666 0c-2.9 0-5.756.2-8.56.588 33.147 4.582 58.775 35.42 58.775 72.78z" fill="#4BC8D2"></path>
    </g>
    <defs>
      <clipPath id="clip0">
        <path fill="#fff" d="M0 0h150v148.214H0z"></path>
      </clipPath>
    </defs>
  </symbol>
  <symbol fill="none" xmlns="http://www.w3.org/2000/svg" viewBox="0 0 30 30" id="mail">
    <path d="M15 15.891L.019 3.75H29.98L15 15.891zm0 3.218L0 6.952V26.25h30V6.953L15 19.108z" fill="#fff" fill-opacity=".5"></path>
  </symbol>
  <symbol fill="none" xmlns="http://www.w3.org/2000/svg" viewBox="0 0 24 40" id="phone">
    <path fill-rule="evenodd" clip-rule="evenodd" d="M4.266 0h15.468c1.175 0 2.25.468 3.017 1.212A4.06 4.06 0 0124 4.142v31.716a4.09 4.09 0 01-1.249 2.93A4.307 4.307 0 0119.734 40H4.266a4.338 4.338 0 01-3.017-1.212A4.06 4.06 0 010 35.858V4.142a4.09 4.09 0 011.249-2.93A4.307 4.307 0 014.266 0zm7.728 34.91c.964 0 1.756.756 1.756 1.705 0 .936-.78 1.704-1.756 1.704-.965 0-1.756-.756-1.756-1.704 0-.937.779-1.705 1.756-1.705zM1.212 33.613h21.564V6.423H1.212v27.19z" fill="#fff" fill-opacity=".5"></path>
  </symbol>
  <symbol fill="none" xmlns="http://www.w3.org/2000/svg" viewBox="0 0 27 35" id="phone-old">
    <path d="M22.95 33.434l-1.74.96C11.032 39.673-6.618 8.88 3.303 3.062l1.67-.93 5.416 9.432-1.66.921c-3.015 1.816 4.024 14.156 7.114 12.462l1.695-.936 5.412 9.422zM8.646 0l-2.45 1.422 5.417 9.43 2.451-1.422L8.646 0zm12.561 21.87l-2.45 1.422 5.416 9.431 2.452-1.421-5.418-9.431z" fill="#fff" fill-opacity=".5"></path>
  </symbol>
  <symbol fill="none" xmlns="http://www.w3.org/2000/svg" viewBox="0 0 24 24" id="arrow">
    <path d="M5 3l3.057-3L20 12 8.057 24 5 21l9-9-9-9z" fill="#8D8D90"></path>
  </symbol>
</svg>