<svg width="150" height="149" viewBox="0 0 150 149" fill="none" xmlns="http://www.w3.org/2000/svg">
<g clip-path="url(#clip0)">
<path d="M149.865 74.8651C149.865 92.8854 143.496 109.42 132.889 122.34C119.159 139.062 98.325 134.908 74.9999 134.908C51.6747 134.908 30.8412 139.062 17.111 122.34C6.50415 109.42 0.134766 92.8854 0.134766 74.8651C0.134766 33.5197 33.6544 0 74.9999 0C116.345 0 149.865 33.5197 149.865 74.8651Z" fill="#5DE9F4"/>
<path d="M60.3438 79.7412H89.6563V110.827H60.3438V79.7412Z" fill="#EAA678"/>
<path d="M75 79.7423H89.6563V110.828H75V79.7423Z" fill="#D38C5B"/>
<path d="M60.3438 99.2529H89.6563V130.339H60.3438V99.2529Z" fill="#FFC397"/>
<path d="M75 99.2529H89.6563V130.339H75V99.2529Z" fill="#EAA678"/>
<path d="M125 112.054L126.786 128.125C123.741 131.845 121.178 132.277 117.411 135.268C114.755 137.375 111.89 138.933 108.929 140.625C99.1653 146.203 87.0394 148.214 75.0001 148.214C62.9608 148.214 51.6644 145.029 41.9012 139.452C38.9397 137.76 36.1608 136.607 32.1429 134.375C27.9382 132.039 26.2595 130.952 23.2144 127.232V112.986C23.2144 105.322 29.4093 99.1072 37.0535 99.1072H60.3421L70.4297 113.644L75.0001 126.25L79.5704 113.644L89.6581 99.1072H112.947C120.591 99.1072 125 104.39 125 112.054Z" fill="#4A80AA"/>
<path d="M125.446 113.393L126.78 128.125C115.179 142.411 95.8636 148.214 75 148.214V126.315L79.5698 113.746L89.6563 99.2518H112.942C120.585 99.2518 125.446 105.752 125.446 113.393Z" fill="#407093"/>
<path d="M62.083 114.796L70.43 148.214H74.9998V125.893L70.43 113.745L62.083 114.796Z" fill="#399E73"/>
<path d="M87.9168 114.796L79.5698 148.214H75V126.339L79.5698 113.745L87.9168 114.796Z" fill="#207F54"/>
<path d="M98.0843 54.1046C97.1091 39.2992 85.1333 33.8278 74.9997 33.8278C64.8661 33.8278 52.8902 39.2992 51.9151 54.1046C49.2946 54.6115 47.4332 58.0484 47.7261 60.8274L48.1753 67.1516C48.4826 70.0701 51.0479 72.2004 53.8751 71.8834L54.3627 71.8305C60.1538 87.3804 69.2353 89.0016 74.9997 89.9122C80.7641 89.0019 89.8459 87.3806 95.6367 71.8305L96.1243 71.8834C98.9512 72.2004 101.516 70.0701 101.824 67.1516L102.273 60.8274C102.566 58.0484 100.705 54.6115 98.0843 54.1046Z" fill="#FFC397"/>
<path d="M102.273 60.8274L101.824 67.1516C101.517 70.0701 98.9515 72.2004 96.1244 71.8834L95.6368 71.8305C93.6577 77.1387 91.2967 80.8257 88.8154 83.4125C84.0308 88.4036 78.7971 89.3116 74.9995 89.9119V33.8278C85.1331 33.8278 97.109 39.2992 98.0841 54.1046C100.705 54.6115 102.566 58.0484 102.273 60.8274Z" fill="#EAA678"/>
<path d="M60.3435 93.2709L49.6606 99.8985L58.3514 121.847L70.43 113.745L60.3435 93.2709Z" fill="#5BBC96"/>
<path d="M89.6563 93.2709L100.339 99.8985L91.6485 121.847L79.5698 113.745L89.6563 93.2709Z" fill="#399E73"/>
<path d="M82.4648 32.4648C86.7977 28.1319 86.7977 21.1069 82.4648 16.774C78.132 12.4411 71.107 12.4411 66.7741 16.774C62.4412 21.1069 62.4412 28.1319 66.7741 32.4648C71.107 36.7976 78.132 36.7976 82.4648 32.4648Z" fill="#3D3D3D"/>
<path d="M86.0962 25.382C86.0962 26.3341 85.9759 27.2575 85.7483 28.139C84.5241 32.9337 80.1767 36.4781 75 36.4781V14.2858C81.1288 14.2858 86.0962 19.2532 86.0962 25.382Z" fill="#242625"/>
<path d="M85.1049 27.5088C83.3643 25.995 80.5879 25 76.2965 25C50.3959 25 49.4846 47.7833 53.6691 58.7558C53.6691 58.7558 70.6958 57.4968 83.3897 43.3634C87.9166 53.2937 98.0489 58.7558 98.0489 58.7558C102.114 36.1119 91.9295 29.7589 85.1049 27.5088Z" fill="#515151"/>
<path d="M97.9693 58.7568C97.9693 58.7568 87.8383 53.295 83.3104 43.3629C80.6632 46.3109 77.8277 48.6965 75 50.6269V25.0183C75.4002 25.0052 75.8057 25 76.2163 25C80.5089 25 83.2842 25.994 85.0263 27.5085C85.2644 27.587 85.505 27.6707 85.7483 27.757C92.5415 30.2185 101.893 36.8966 97.9693 58.7568Z" fill="#3D3D3D"/>
<path d="M129.464 125.777V120.426C129.464 115.512 127.525 111 124.375 108.036C115.426 129.229 97.747 144.541 76.7856 147.638C79.3157 148.01 81.8926 148.209 84.5086 148.214C87.022 148.21 89.5022 148.04 91.9417 147.715C106.659 145.694 119.79 137.656 129.464 125.777Z" fill="#315A78"/>
<path d="M132.881 73.3683C132.881 97.4179 126.339 104.911 124.553 108.036L130.058 125.482C142.371 112.187 150 93.7492 150 73.3683C150 32.8481 119.854 0 82.6664 0C79.7669 0 76.9099 0.200043 74.1069 0.587519C107.253 5.1696 132.881 36.0078 132.881 73.3683Z" fill="#4BC8D2"/>
</g>
<defs>
<clipPath id="clip0">
<rect width="150" height="148.214" fill="white"/>
</clipPath>
</defs>
</svg>
